<?xml version="1.0" standalone="no"?>
<!DOCTYPE svg PUBLIC "-//W3C//DTD SVG 20010904//EN"
 "http://www.w3.org/TR/2001/REC-SVG-20010904/DTD/svg10.dtd">
<svg version="1.0" xmlns="http://www.w3.org/2000/svg"
 width="1280.000000pt" height="1280.000000pt" viewBox="0 0 1280.000000 1280.000000"
 preserveAspectRatio="xMidYMid meet">
<metadata>
Created by potrace 1.11, written by Peter Selinger 2001-2013
</metadata>
<g transform="translate(0.000000,1280.000000) scale(0.100000,-0.100000)"
fill="#000000" stroke="none">
<path d="M6344 12571 c-22 -10 -56 -37 -76 -60 -26 -31 -392 -809 -1349 -2869
-722 -1555 -1323 -2855 -1336 -2890 -71 -193 -71 -512 0 -704 13 -35 615
-1336 1337 -2891 1033 -2225 1321 -2837 1352 -2872 23 -26 57 -50 83 -61 42
-16 48 -16 90 0 26 11 60 35 83 61 31 35 319 647 1352 2872 722 1555 1324
2856 1337 2891 71 192 71 511 0 704 -13 35 -614 1335 -1336 2890 -957 2060
-1323 2838 -1349 2869 -34 40 -99 79 -132 79 -8 0 -33 -9 -56 -19z m1161
-3781 c605 -1304 1100 -2379 1100 -2390 0 -20 -2196 -4760 -2205 -4760 -9 0
-2205 4740 -2205 4760 0 20 2196 4760 2205 4760 3 0 500 -1067 1105 -2370z"/>
<path d="M5830 9426 c0 -3 114 -208 253 -458 l252 -453 3 -512 3 -511 -68 -7
c-161 -15 -274 -50 -337 -106 -70 -61 -97 -160 -62 -228 16 -30 90 -102 125
-120 11 -7 21 -15 21 -19 0 -4 -23 -22 -50 -40 -70 -45 -110 -103 -110 -159 0
-24 6 -56 14 -72 16 -30 90 -102 125 -120 27 -15 27 -25 -3 -39 -36 -16 -105
-81 -122 -113 -18 -36 -18 -102 0 -138 17 -32 86 -97 122 -113 30 -14 30 -24
3 -39 -35 -18 -109 -90 -125 -120 -8 -16 -14 -48 -14 -72 0 -56 40 -114 110
-159 27 -18 50 -35 50 -38 0 -3 -24 -23 -54 -45 -73 -52 -106 -105 -106 -167
0 -82 49 -152 136 -197 50 -26 185 -58 277 -67 l67 -6 0 -519 0 -519 -250 0
-250 0 0 -65 0 -65 563 2 562 3 0 60 0 60 -254 3 -253 2 3 583 4 582 -120 6
c-233 12 -355 58 -355 134 0 29 41 66 122 110 l67 36 78 -25 c174 -54 380 -82
494 -66 129 18 189 69 189 161 0 61 -31 107 -93 138 -100 50 -321 36 -555 -35
l-112 -34 -68 34 c-73 37 -122 77 -122 100 0 19 60 68 130 105 l56 30 99 -29
c148 -45 258 -63 385 -64 139 -1 203 17 250 70 25 29 30 43 30 87 0 73 -26
112 -98 145 -52 24 -68 27 -177 27 -131 -1 -229 -17 -388 -66 l-98 -30 -52 24
c-75 35 -137 84 -137 107 0 23 62 72 137 107 l52 24 98 -30 c158 -49 248 -64
383 -65 116 -1 129 1 182 26 72 33 98 72 98 145 0 44 -5 58 -30 87 -48 54
-111 71 -255 70 -127 -1 -253 -23 -399 -68 l-80 -25 -56 30 c-70 37 -130 86
-130 105 0 23 49 63 122 100 l68 34 112 -34 c234 -71 455 -85 555 -35 62 31
93 77 93 138 0 91 -58 141 -188 161 -114 18 -333 -13 -510 -71 l-62 -21 -68
37 c-79 43 -122 81 -122 108 0 77 118 123 350 135 l125 7 1 575 0 575 252 453
c139 249 252 455 252 457 0 3 -256 5 -570 5 -313 0 -570 -2 -570 -4z m508
-383 c1 -139 -1 -253 -5 -253 -7 0 -270 470 -281 501 -2 6 54 8 140 7 l143 -3
3 -252z m410 247 c-9 -28 -274 -499 -280 -500 -10 0 -11 494 -1 503 11 11 285
8 281 -3z m43 -2261 c32 -17 22 -37 -23 -50 -70 -19 -358 7 -343 31 5 8 88 23
175 34 52 6 169 -3 191 -15z m2 -404 c28 -12 16 -39 -23 -52 -19 -7 -62 -12
-95 -12 -68 -1 -246 26 -258 38 -26 26 319 49 376 26z m-23 -398 c39 -13 51
-41 23 -51 -10 -4 -48 -10 -85 -13 -75 -6 -305 24 -291 38 13 13 170 37 248
37 39 1 86 -4 105 -11z m3 -408 c42 -11 48 -32 15 -51 -44 -24 -346 -6 -363
22 -3 4 28 14 67 20 40 7 78 14 83 15 24 8 164 4 198 -6z"/>
<path d="M5952 3948 l3 -63 445 0 445 0 3 63 3 62 -451 0 -451 0 3 -62z"/>
<path d="M6070 3695 l0 -65 330 0 330 0 0 65 0 65 -330 0 -330 0 0 -65z"/>
<path d="M6187 3504 c-4 -4 -7 -34 -7 -66 l0 -58 220 0 221 0 -3 63 -3 62
-211 3 c-115 1 -213 -1 -217 -4z"/>
<path d="M6282 3188 l3 -63 115 0 115 0 3 63 3 62 -121 0 -121 0 3 -62z"/>
</g>
</svg>
